<svg id="svg" version="1.1" xmlns="http://www.w3.org/2000/svg" xmlns:xlink="http://www.w3.org/1999/xlink" width="400" height="285.6666666666667" viewBox="0, 0, 400,285.6666666666667"><g id="svgg"><path id="path0" d="M37.417 0.255 C 18.398 2.733,3.379 17.340,0.409 36.250 C 0.086 38.308,-0.145 244.590,0.172 247.500 C 2.322 267.191,17.611 282.692,37.417 285.262 C 39.958 285.592,359.198 285.838,362.000 285.513 C 381.728 283.219,397.329 267.785,399.744 248.172 C 399.972 246.323,400.000 234.424,400.000 140.397 L 400.000 34.700 399.400 32.309 C 395.099 15.155,380.792 2.492,363.193 0.261 C 360.350 -0.100,40.182 -0.106,37.417 0.255 M282.000 99.559 C 232.157 149.386,204.819 176.600,204.331 176.876 C 202.370 177.985,200.000 178.125,198.000 177.251 C 196.728 176.696,201.333 181.260,103.787 83.867 L 42.491 22.667 200.704 22.667 L 358.917 22.667 282.000 99.559 M378.331 244.750 C 377.520 254.320,373.664 260.103,366.417 262.619 L 365.250 263.024 311.297 208.971 L 257.343 154.917 317.880 94.375 L 378.417 33.833 378.466 138.208 C 378.501 213.234,378.463 243.193,378.331 244.750 M88.640 208.277 C 36.439 260.478,34.094 262.798,33.681 262.643 C 28.688 260.776,25.881 257.275,24.449 251.130 L 24.089 249.583 24.043 142.083 L 23.998 34.583 83.582 94.167 L 143.167 153.750 88.640 208.277 M177.583 188.076 C 195.951 206.530,196.622 207.183,197.747 207.700 C 199.829 208.656,202.464 208.529,204.498 207.374 C 204.968 207.107,212.130 200.078,223.627 188.600 L 242.003 170.253 288.960 217.210 L 335.917 264.167 199.583 264.167 L 63.250 264.167 110.833 216.583 C 137.004 190.412,158.454 168.997,158.500 168.993 C 158.546 168.989,167.133 177.577,177.583 188.076 " stroke="none" fill="#040404" fill-rule="evenodd"></path><path id="path1" d="" stroke="none" fill="#080404" fill-rule="evenodd"></path><path id="path2" d="" stroke="none" fill="#080404" fill-rule="evenodd"></path><path id="path3" d="" stroke="none" fill="#080404" fill-rule="evenodd"></path><path id="path4" d="" stroke="none" fill="#080404" fill-rule="evenodd"></path></g></svg>